<?xml version="1.0" encoding="UTF-8"?>
<svg id="Layer_1" xmlns="http://www.w3.org/2000/svg" version="1.1" viewBox="0 0 576 243">
  <!-- Generator: Adobe Illustrator 30.1.0, SVG Export Plug-In . SVG Version: 2.1.1 Build 136)  -->
  <defs>
    <style>
      .st0 {
        fill: #f5f5f5;
      }
    </style>
  </defs>
  <g id="WordMark">
    <path id="z" class="st0" d="M28.81,174.36l33.55-50.89h-29.33v-20.87h71.76l.14.29-35.11,51.32h32.57v20.44H28.95s-.14-.29-.14-.29Z"/>
    <path id="S1" class="st0" d="M153.15,90.2c-6.48,0-10.15,3.24-10.15,8.04,0,5.22,2.26,6.63,17.48,10.85,17.77,4.93,27.35,13.25,27.35,29.04,0,22.97-15.65,38.35-39.33,38.35-12.12,0-27.07-4.51-37.21-11.42l12.83-23.26c7.75,5.92,15.93,9.02,23.4,9.02s11-3.53,11-9.02c0-5.78-4.22-8.17-16.49-11.28-19.17-4.8-28.33-13.39-28.33-29.46,0-20.72,14.8-34.54,37.64-34.54,10.43,0,22.7,3.95,31.01,10.01l-11,21.71c-5.22-4.93-12.12-8.04-18.19-8.04h0Z"/>
    <path id="T" class="st0" d="M212.51,91.9h-22.28v-23.55h72.04v23.55h-22.28v82.75h-27.49v-82.75h0Z"/>
    <path id="A" class="st0" d="M292.86,68.35h28.48l39.19,106.3h-28.62l-6.77-19.46h-38.77l-7.05,19.46h-28.06l41.59-106.3ZM317.82,134.18l-11.42-32.85h-.29l-11.98,32.85h23.69Z"/>
    <path id="S2" class="st0" d="M405.94,90.2c-6.48,0-10.15,3.24-10.15,8.04,0,5.22,2.26,6.63,17.48,10.85,17.77,4.93,27.35,13.25,27.35,29.04,0,22.97-15.65,38.35-39.33,38.35-12.12,0-27.07-4.51-37.21-11.42l12.83-23.26c7.75,5.92,15.93,9.02,23.4,9.02s11-3.53,11-9.02c0-5.78-4.22-8.17-16.49-11.28-19.17-4.8-28.33-13.39-28.33-29.46,0-20.72,14.8-34.54,37.64-34.54,10.43,0,22.7,3.95,31.01,10.01l-11,21.71c-5.22-4.93-12.12-8.04-18.19-8.04h0Z"/>
    <path id="H" class="st0" d="M481.5,68.35v40.6h38.21v-40.6h27.49v106.3h-27.49v-43.14h-38.21v43.14h-27.48v-106.3h27.48Z"/>
  </g>
</svg>