<?xml version="1.0" encoding="UTF-8"?>
<svg id="Logo" xmlns="http://www.w3.org/2000/svg" version="1.1" viewBox="0 0 1024 1024">
  <!-- Generator: Adobe Illustrator 30.1.0, SVG Export Plug-In . SVG Version: 2.1.1 Build 136)  -->
  <defs>
    <style>
      .st0 {
        fill: #ff8000;
      }

      .st1 {
        fill: lime;
      }

      .st2 {
        fill: #ff0;
      }

      .st3 {
        fill: #f5f5f7;
      }

      .st4 {
        fill: red;
      }
    </style>
  </defs>
  <polygon class="st0" points="819.2 546.13 819.2 477.87 512 631.46 204.8 477.87 204.8 546.13 512 699.73 819.2 546.13"/>
  <polygon class="st4" points="204.8 614.4 204.8 682.67 512 836.27 819.2 682.67 819.2 614.4 512 768 204.8 614.4"/>
  <polygon class="st2" points="819.2 341.33 512 494.94 204.8 341.33 204.8 409.6 512 563.21 819.2 409.6 819.2 341.33"/>
  <polygon class="st3" points="955.74 750.94 512 972.8 68.26 750.94 68.26 307.2 136.53 273.06 136.53 716.8 512 904.53 887.47 716.8 887.47 273.06 955.74 307.2 955.74 750.94"/>
  <polygon class="st1" points="512 426.67 204.8 273.06 204.8 204.8 512 51.2 819.2 204.8 819.2 273.06 512 426.67"/>
</svg>